STARTFONT 2.1
FONT -FontForge-Bitstream Vera Sans Mono-Book-R-Normal-SansMono--16-150-75-75-P-82-ISO8859-1
SIZE 15 75 75
FONTBOUNDINGBOX 8 16 -1 -2
COMMENT "Generated by fontforge, http://fontforge.sourceforge.net"
COMMENT "Copyright (c) 2003 by Bitstream, Inc. All Rights Reserved."
STARTPROPERTIES 40
FOUNDRY "FontForge"
FAMILY_NAME "Bitstream Vera Sans Mono"
WEIGHT_NAME "Book"
SLANT "R"
SETWIDTH_NAME "Normal"
ADD_STYLE_NAME "SansMono"
PIXEL_SIZE 16
POINT_SIZE 150
RESOLUTION_X 75
RESOLUTION_Y 75
SPACING "P"
AVERAGE_WIDTH 82
CHARSET_REGISTRY "ISO8859"
CHARSET_ENCODING "1"
FONTNAME_REGISTRY ""
CHARSET_COLLECTIONS "ISO8859-9 ISOLatin1Encoding"
FONT_NAME "BitstreamVeraSansMono-Roman"
FACE_NAME "Bitstream Vera Sans Mono"
COPYRIGHT "Copyright (c) 2003 by Bitstream, Inc. All Rights Reserved."
FONT_VERSION "Release 1.10"
FONT_ASCENT 12
FONT_DESCENT 4
UNDERLINE_POSITION -2
UNDERLINE_THICKNESS 2
X_HEIGHT 8
CAP_HEIGHT 11
RAW_ASCENT 759
RAW_DESCENT 240
NORM_SPACE 9
RELATIVE_WEIGHT 40
RELATIVE_SETWIDTH 50
SUPERSCRIPT_X 0
SUPERSCRIPT_Y 4
SUPERSCRIPT_SIZE 9
SUBSCRIPT_X 0
SUBSCRIPT_Y -3
SUBSCRIPT_SIZE 9
FIGURE_WIDTH 8
AVG_LOWERCASE_WIDTH 80
AVG_UPPERCASE_WIDTH 80
ENDPROPERTIES
CHARS 256
STARTCHAR uni0000
ENCODING 0
SWIDTH 537 0
DWIDTH 9 0
BBX 1 1 0 0
BITMAP
00
ENDCHAR
STARTCHAR uni0001
ENCODING 1
SWIDTH 537 0
DWIDTH 9 0
BBX 1 1 0 0
BITMAP
00
ENDCHAR
STARTCHAR uni0002
ENCODING 2
SWIDTH 537 0
DWIDTH 9 0
BBX 1 1 0 0
BITMAP
00
ENDCHAR
STARTCHAR uni0003
ENCODING 3
SWIDTH 537 0
DWIDTH 9 0
BBX 1 1 0 0
BITMAP
00
ENDCHAR
STARTCHAR uni0004
ENCODING 4
SWIDTH 537 0
DWIDTH 9 0
BBX 1 1 0 0
BITMAP
00
ENDCHAR
STARTCHAR uni0005
ENCODING 5
SWIDTH 537 0
DWIDTH 9 0
BBX 1 1 0 0
BITMAP
00
ENDCHAR
STARTCHAR uni0006
ENCODING 6
SWIDTH 537 0
DWIDTH 9 0
BBX 1 1 0 0
BITMAP
00
ENDCHAR
STARTCHAR uni0007
ENCODING 7
SWIDTH 537 0
DWIDTH 9 0
BBX 1 1 0 0
BITMAP
00
ENDCHAR
STARTCHAR uni0008
ENCODING 8
SWIDTH 537 0
DWIDTH 9 0
BBX 1 1 0 0
BITMAP
00
ENDCHAR
STARTCHAR uni0009
ENCODING 9
SWIDTH 537 0
DWIDTH 9 0
BBX 1 1 0 0
BITMAP
00
ENDCHAR
STARTCHAR uni000A
ENCODING 10
SWIDTH 537 0
DWIDTH 9 0
BBX 1 1 0 0
BITMAP
00
ENDCHAR
STARTCHAR uni000B
ENCODING 11
SWIDTH 537 0
DWIDTH 9 0
BBX 1 1 0 0
BITMAP
00
ENDCHAR
STARTCHAR uni000C
ENCODING 12
SWIDTH 537 0
DWIDTH 9 0
BBX 1 1 0 0
BITMAP
00
ENDCHAR
STARTCHAR uni000D
ENCODING 13
SWIDTH 537 0
DWIDTH 9 0
BBX 1 1 0 0
BITMAP
00
ENDCHAR
STARTCHAR uni000E
ENCODING 14
SWIDTH 537 0
DWIDTH 9 0
BBX 1 1 0 0
BITMAP
00
ENDCHAR
STARTCHAR uni000F
ENCODING 15
SWIDTH 537 0
DWIDTH 9 0
BBX 1 1 0 0
BITMAP
00
ENDCHAR
STARTCHAR uni0010
ENCODING 16
SWIDTH 537 0
DWIDTH 9 0
BBX 1 1 0 0
BITMAP
00
ENDCHAR
STARTCHAR uni0011
ENCODING 17
SWIDTH 537 0
DWIDTH 9 0
BBX 1 1 0 0
BITMAP
00
ENDCHAR
STARTCHAR uni0012
ENCODING 18
SWIDTH 537 0
DWIDTH 9 0
BBX 1 1 0 0
BITMAP
00
ENDCHAR
STARTCHAR uni0013
ENCODING 19
SWIDTH 537 0
DWIDTH 9 0
BBX 1 1 0 0
BITMAP
00
ENDCHAR
STARTCHAR uni0014
ENCODING 20
SWIDTH 537 0
DWIDTH 9 0
BBX 1 1 0 0
BITMAP
00
ENDCHAR
STARTCHAR uni0015
ENCODING 21
SWIDTH 537 0
DWIDTH 9 0
BBX 1 1 0 0
BITMAP
00
ENDCHAR
STARTCHAR uni0016
ENCODING 22
SWIDTH 537 0
DWIDTH 9 0
BBX 1 1 0 0
BITMAP
00
ENDCHAR
STARTCHAR uni0017
ENCODING 23
SWIDTH 537 0
DWIDTH 9 0
BBX 1 1 0 0
BITMAP
00
ENDCHAR
STARTCHAR uni0018
ENCODING 24
SWIDTH 537 0
DWIDTH 9 0
BBX 1 1 0 0
BITMAP
00
ENDCHAR
STARTCHAR uni0019
ENCODING 25
SWIDTH 537 0
DWIDTH 9 0
BBX 1 1 0 0
BITMAP
00
ENDCHAR
STARTCHAR uni001A
ENCODING 26
SWIDTH 537 0
DWIDTH 9 0
BBX 1 1 0 0
BITMAP
00
ENDCHAR
STARTCHAR uni001B
ENCODING 27
SWIDTH 537 0
DWIDTH 9 0
BBX 1 1 0 0
BITMAP
00
ENDCHAR
STARTCHAR uni001C
ENCODING 28
SWIDTH 537 0
DWIDTH 9 0
BBX 1 1 0 0
BITMAP
00
ENDCHAR
STARTCHAR uni001D
ENCODING 29
SWIDTH 537 0
DWIDTH 9 0
BBX 1 1 0 0
BITMAP
00
ENDCHAR
STARTCHAR uni001E
ENCODING 30
SWIDTH 537 0
DWIDTH 9 0
BBX 1 1 0 0
BITMAP
00
ENDCHAR
STARTCHAR uni001F
ENCODING 31
SWIDTH 537 0
DWIDTH 9 0
BBX 1 1 0 0
BITMAP
00
ENDCHAR
STARTCHAR space
ENCODING 32
SWIDTH 537 0
DWIDTH 9 0
BBX 1 1 0 0
BITMAP
00
ENDCHAR
STARTCHAR exclam
ENCODING 33
SWIDTH 519 0
DWIDTH 8 0
BBX 1 12 3 0
BITMAP
80
80
80
80
80
80
80
80
00
00
80
80
ENDCHAR
STARTCHAR quotedbl
ENCODING 34
SWIDTH 520 0
DWIDTH 8 0
BBX 3 4 2 8
BITMAP
A0
A0
A0
A0
ENDCHAR
STARTCHAR numbersign
ENCODING 35
SWIDTH 520 0
DWIDTH 8 0
BBX 8 11 0 0
BITMAP
12
12
12
7F
24
24
24
FE
48
48
48
ENDCHAR
STARTCHAR dollar
ENCODING 36
SWIDTH 519 0
DWIDTH 8 0
BBX 7 14 0 -2
BITMAP
10
10
7C
92
90
90
70
1C
12
12
92
7C
10
10
ENDCHAR
STARTCHAR percent
ENCODING 37
SWIDTH 520 0
DWIDTH 8 0
BBX 8 12 0 0
BITMAP
60
90
90
90
63
0C
30
C6
09
09
09
06
ENDCHAR
STARTCHAR ampersand
ENCODING 38
SWIDTH 519 0
DWIDTH 8 0
BBX 8 12 0 0
BITMAP
38
44
40
40
20
20
51
89
85
82
42
3D
ENDCHAR
STARTCHAR quotesingle
ENCODING 39
SWIDTH 520 0
DWIDTH 8 0
BBX 1 4 3 8
BITMAP
80
80
80
80
ENDCHAR
STARTCHAR parenleft
ENCODING 40
SWIDTH 518 0
DWIDTH 8 0
BBX 4 14 2 -2
BITMAP
10
20
40
40
80
80
80
80
80
80
40
40
20
10
ENDCHAR
STARTCHAR parenright
ENCODING 41
SWIDTH 520 0
DWIDTH 8 0
BBX 4 14 2 -2
BITMAP
80
40
20
20
10
10
10
10
10
10
20
20
40
80
ENDCHAR
STARTCHAR asterisk
ENCODING 42
SWIDTH 520 0
DWIDTH 8 0
BBX 7 9 0 3
BITMAP
10
10
92
54
38
54
92
10
10
ENDCHAR
STARTCHAR plus
ENCODING 43
SWIDTH 520 0
DWIDTH 8 0
BBX 7 7 0 1
BITMAP
10
10
10
FE
10
10
10
ENDCHAR
STARTCHAR comma
ENCODING 44
SWIDTH 520 0
DWIDTH 8 0
BBX 3 5 2 -3
BITMAP
60
60
60
C0
80
ENDCHAR
STARTCHAR hyphen
ENCODING 45
SWIDTH 520 0
DWIDTH 8 0
BBX 6 1 1 4
BITMAP
FC
ENDCHAR
STARTCHAR period
ENCODING 46
SWIDTH 520 0
DWIDTH 8 0
BBX 2 2 3 0
BITMAP
C0
C0
ENDCHAR
STARTCHAR slash
ENCODING 47
SWIDTH 520 0
DWIDTH 8 0
BBX 7 14 0 -2
BITMAP
02
02
04
04
08
08
10
10
20
20
40
40
80
80
ENDCHAR
STARTCHAR zero
ENCODING 48
SWIDTH 520 0
DWIDTH 8 0
BBX 7 12 0 0
BITMAP
38
44
86
8A
8A
92
92
A2
A2
C2
44
38
ENDCHAR
STARTCHAR one
ENCODING 49
SWIDTH 518 0
DWIDTH 8 0
BBX 6 12 0 0
BITMAP
10
30
50
90
10
10
10
10
10
10
10
FC
ENDCHAR
STARTCHAR two
ENCODING 50
SWIDTH 520 0
DWIDTH 8 0
BBX 7 12 0 0
BITMAP
38
44
82
02
02
04
08
10
20
40
80
FE
ENDCHAR
STARTCHAR three
ENCODING 51
SWIDTH 520 0
DWIDTH 8 0
BBX 7 12 0 0
BITMAP
78
84
02
02
04
78
04
02
02
02
84
78
ENDCHAR
STARTCHAR four
ENCODING 52
SWIDTH 519 0
DWIDTH 8 0
BBX 7 12 0 0
BITMAP
0C
14
14
24
24
44
44
84
FE
04
04
04
ENDCHAR
STARTCHAR five
ENCODING 53
SWIDTH 520 0
DWIDTH 8 0
BBX 7 12 0 0
BITMAP
FC
80
80
80
F8
04
02
02
02
02
84
78
ENDCHAR
STARTCHAR six
ENCODING 54
SWIDTH 520 0
DWIDTH 8 0
BBX 7 12 0 0
BITMAP
38
44
40
80
B8
C4
82
82
82
82
44
38
ENDCHAR
STARTCHAR seven
ENCODING 55
SWIDTH 520 0
DWIDTH 8 0
BBX 7 12 0 0
BITMAP
FE
02
04
04
08
08
10
10
20
20
40
40
ENDCHAR
STARTCHAR eight
ENCODING 56
SWIDTH 520 0
DWIDTH 8 0
BBX 7 12 0 0
BITMAP
38
44
82
82
44
38
44
82
82
82
44
38
ENDCHAR
STARTCHAR nine
ENCODING 57
SWIDTH 520 0
DWIDTH 8 0
BBX 7 12 0 0
BITMAP
38
44
82
82
82
82
46
3A
02
02
44
38
ENDCHAR
STARTCHAR colon
ENCODING 58
SWIDTH 520 0
DWIDTH 8 0
BBX 2 8 3 0
BITMAP
C0
C0
00
00
00
00
C0
C0
ENDCHAR
STARTCHAR semicolon
ENCODING 59
SWIDTH 520 0
DWIDTH 8 0
BBX 3 11 2 -3
BITMAP
60
60
00
00
00
00
60
60
60
C0
80
ENDCHAR
STARTCHAR less
ENCODING 60
SWIDTH 520 0
DWIDTH 8 0
BBX 8 8 0 1
BITMAP
03
0C
30
C0
C0
30
0C
03
ENDCHAR
STARTCHAR equal
ENCODING 61
SWIDTH 520 0
DWIDTH 8 0
BBX 7 4 0 3
BITMAP
FE
00
00
FE
ENDCHAR
STARTCHAR greater
ENCODING 62
SWIDTH 520 0
DWIDTH 8 0
BBX 8 8 0 1
BITMAP
C0
30
0C
03
03
0C
30
C0
ENDCHAR
STARTCHAR question
ENCODING 63
SWIDTH 519 0
DWIDTH 8 0
BBX 6 12 1 0
BITMAP
78
84
04
04
04
08
10
20
20
00
20
20
ENDCHAR
STARTCHAR at
ENCODING 64
SWIDTH 520 0
DWIDTH 8 0
BBX 8 14 0 -3
BITMAP
1C
22
41
4D
93
91
91
91
91
93
4D
40
20
1E
ENDCHAR
STARTCHAR A
ENCODING 65
SWIDTH 520 0
DWIDTH 8 0
BBX 8 12 0 0
BITMAP
18
18
24
24
24
24
42
42
7E
42
81
81
ENDCHAR
STARTCHAR B
ENCODING 66
SWIDTH 519 0
DWIDTH 8 0
BBX 7 12 0 0
BITMAP
F8
84
82
82
84
F8
84
82
82
82
84
F8
ENDCHAR
STARTCHAR C
ENCODING 67
SWIDTH 520 0
DWIDTH 8 0
BBX 7 12 0 0
BITMAP
3C
42
40
80
80
80
80
80
80
40
42
3C
ENDCHAR
STARTCHAR D
ENCODING 68
SWIDTH 519 0
DWIDTH 8 0
BBX 7 12 0 0
BITMAP
F8
84
82
82
82
82
82
82
82
82
84
F8
ENDCHAR
STARTCHAR E
ENCODING 69
SWIDTH 519 0
DWIDTH 8 0
BBX 7 12 0 0
BITMAP
FE
80
80
80
80
FE
80
80
80
80
80
FE
ENDCHAR
STARTCHAR F
ENCODING 70
SWIDTH 518 0
DWIDTH 8 0
BBX 7 12 0 0
BITMAP
FE
80
80
80
80
FE
80
80
80
80
80
80
ENDCHAR
STARTCHAR G
ENCODING 71
SWIDTH 520 0
DWIDTH 8 0
BBX 7 12 0 0
BITMAP
3C
42
40
80
80
80
8E
82
82
42
42
3C
ENDCHAR
STARTCHAR H
ENCODING 72
SWIDTH 520 0
DWIDTH 8 0
BBX 7 12 0 0
BITMAP
82
82
82
82
82
FE
82
82
82
82
82
82
ENDCHAR
STARTCHAR I
ENCODING 73
SWIDTH 520 0
DWIDTH 8 0
BBX 5 12 1 0
BITMAP
F8
20
20
20
20
20
20
20
20
20
20
F8
ENDCHAR
STARTCHAR J
ENCODING 74
SWIDTH 522 0
DWIDTH 8 0
BBX 7 12 0 0
BITMAP
1E
02
02
02
02
02
02
02
02
02
82
7C
ENDCHAR
STARTCHAR K
ENCODING 75
SWIDTH 518 0
DWIDTH 8 0
BBX 8 12 0 0
BITMAP
80
82
84
88
90
A0
E0
90
88
84
82
81
ENDCHAR
STARTCHAR L
ENCODING 76
SWIDTH 518 0
DWIDTH 8 0
BBX 7 12 0 0
BITMAP
80
80
80
80
80
80
80
80
80
80
80
FE
ENDCHAR
STARTCHAR M
ENCODING 77
SWIDTH 520 0
DWIDTH 8 0
BBX 7 12 0 0
BITMAP
C6
C6
AA
AA
AA
92
92
92
82
82
82
82
ENDCHAR
STARTCHAR N
ENCODING 78
SWIDTH 520 0
DWIDTH 8 0
BBX 7 12 0 0
BITMAP
C2
C2
A2
A2
92
92
8A
8A
86
86
82
82
ENDCHAR
STARTCHAR O
ENCODING 79
SWIDTH 520 0
DWIDTH 8 0
BBX 7 12 0 0
BITMAP
38
44
82
82
82
82
82
82
82
82
44
38
ENDCHAR
STARTCHAR P
ENCODING 80
SWIDTH 518 0
DWIDTH 8 0
BBX 7 12 0 0
BITMAP
F8
84
82
82
82
84
F8
80
80
80
80
80
ENDCHAR
STARTCHAR Q
ENCODING 81
SWIDTH 520 0
DWIDTH 8 0
BBX 7 14 0 -2
BITMAP
38
44
82
82
82
82
82
82
82
92
54
38
08
04
ENDCHAR
STARTCHAR R
ENCODING 82
SWIDTH 517 0
DWIDTH 8 0
BBX 8 12 0 0
BITMAP
F8
84
82
82
82
84
F8
84
82
82
82
81
ENDCHAR
STARTCHAR S
ENCODING 83
SWIDTH 519 0
DWIDTH 8 0
BBX 7 12 0 0
BITMAP
7C
82
80
80
80
7C
02
02
02
02
82
7C
ENDCHAR
STARTCHAR T
ENCODING 84
SWIDTH 520 0
DWIDTH 8 0
BBX 7 12 0 0
BITMAP
FE
10
10
10
10
10
10
10
10
10
10
10
ENDCHAR
STARTCHAR U
ENCODING 85
SWIDTH 520 0
DWIDTH 8 0
BBX 7 12 0 0
BITMAP
82
82
82
82
82
82
82
82
82
82
44
38
ENDCHAR
STARTCHAR V
ENCODING 86
SWIDTH 520 0
DWIDTH 8 0
BBX 8 12 0 0
BITMAP
81
81
81
42
42
42
42
24
24
24
18
18
ENDCHAR
STARTCHAR W
ENCODING 87
SWIDTH 520 0
DWIDTH 8 0
BBX 7 12 0 0
BITMAP
82
82
82
92
92
92
AA
AA
AA
AA
44
44
ENDCHAR
STARTCHAR X
ENCODING 88
SWIDTH 520 0
DWIDTH 8 0
BBX 7 12 0 0
BITMAP
82
82
44
44
28
10
10
28
44
44
82
82
ENDCHAR
STARTCHAR Y
ENCODING 89
SWIDTH 520 0
DWIDTH 8 0
BBX 7 12 0 0
BITMAP
82
82
44
44
28
28
10
10
10
10
10
10
ENDCHAR
STARTCHAR Z
ENCODING 90
SWIDTH 518 0
DWIDTH 8 0
BBX 7 12 0 0
BITMAP
FE
02
04
08
08
10
10
20
20
40
80
FE
ENDCHAR
STARTCHAR bracketleft
ENCODING 91
SWIDTH 518 0
DWIDTH 8 0
BBX 3 14 2 -2
BITMAP
E0
80
80
80
80
80
80
80
80
80
80
80
80
E0
ENDCHAR
STARTCHAR backslash
ENCODING 92
SWIDTH 520 0
DWIDTH 8 0
BBX 7 14 0 -2
BITMAP
80
80
40
40
20
20
10
10
08
08
04
04
02
02
ENDCHAR
STARTCHAR bracketright
ENCODING 93
SWIDTH 521 0
DWIDTH 8 0
BBX 3 14 2 -2
BITMAP
E0
20
20
20
20
20
20
20
20
20
20
20
20
E0
ENDCHAR
STARTCHAR asciicircum
ENCODING 94
SWIDTH 520 0
DWIDTH 8 0
BBX 8 4 0 8
BITMAP
18
24
42
81
ENDCHAR
STARTCHAR underscore
ENCODING 95
SWIDTH 522 0
DWIDTH 8 0
BBX 7 1 0 -4
BITMAP
FE
ENDCHAR
STARTCHAR grave
ENCODING 96
SWIDTH 522 0
DWIDTH 8 0
BBX 3 3 2 10
BITMAP
80
40
20
ENDCHAR
STARTCHAR a
ENCODING 97
SWIDTH 520 0
DWIDTH 8 0
BBX 7 9 0 0
BITMAP
3C
42
02
7E
82
82
82
86
7A
ENDCHAR
STARTCHAR b
ENCODING 98
SWIDTH 519 0
DWIDTH 8 0
BBX 7 12 0 0
BITMAP
80
80
80
B8
C4
82
82
82
82
82
C4
B8
ENDCHAR
STARTCHAR c
ENCODING 99
SWIDTH 519 0
DWIDTH 8 0
BBX 7 9 0 0
BITMAP
3C
42
80
80
80
80
80
42
3C
ENDCHAR
STARTCHAR d
ENCODING 100
SWIDTH 520 0
DWIDTH 8 0
BBX 7 12 0 0
BITMAP
02
02
02
3A
46
82
82
82
82
82
46
3A
ENDCHAR
STARTCHAR e
ENCODING 101
SWIDTH 519 0
DWIDTH 8 0
BBX 7 9 0 0
BITMAP
38
44
82
82
FE
80
80
42
3C
ENDCHAR
STARTCHAR f
ENCODING 102
SWIDTH 519 0
DWIDTH 8 0
BBX 6 12 1 0
BITMAP
1C
20
20
FC
20
20
20
20
20
20
20
20
ENDCHAR
STARTCHAR g
ENCODING 103
SWIDTH 520 0
DWIDTH 8 0
BBX 7 12 0 -3
BITMAP
3A
46
82
82
82
82
82
46
3A
02
44
38
ENDCHAR
STARTCHAR h
ENCODING 104
SWIDTH 519 0
DWIDTH 8 0
BBX 7 12 0 0
BITMAP
80
80
80
B8
C4
82
82
82
82
82
82
82
ENDCHAR
STARTCHAR i
ENCODING 105
SWIDTH 519 0
DWIDTH 8 0
BBX 7 12 0 0
BITMAP
10
10
00
70
10
10
10
10
10
10
10
FE
ENDCHAR
STARTCHAR j
ENCODING 106
SWIDTH 523 0
DWIDTH 8 0
BBX 4 15 1 -3
BITMAP
10
10
00
70
10
10
10
10
10
10
10
10
10
10
E0
ENDCHAR
STARTCHAR k
ENCODING 107
SWIDTH 516 0
DWIDTH 8 0
BBX 8 12 0 0
BITMAP
80
80
80
84
88
90
A0
D0
88
84
82
81
ENDCHAR
STARTCHAR l
ENCODING 108
SWIDTH 520 0
DWIDTH 8 0
BBX 7 12 0 0
BITMAP
F0
10
10
10
10
10
10
10
10
10
10
0E
ENDCHAR
STARTCHAR m
ENCODING 109
SWIDTH 519 0
DWIDTH 8 0
BBX 7 9 0 0
BITMAP
FC
92
92
92
92
92
92
92
92
ENDCHAR
STARTCHAR n
ENCODING 110
SWIDTH 519 0
DWIDTH 8 0
BBX 7 9 0 0
BITMAP
B8
C4
82
82
82
82
82
82
82
ENDCHAR
STARTCHAR o
ENCODING 111
SWIDTH 520 0
DWIDTH 8 0
BBX 7 9 0 0
BITMAP
38
44
82
82
82
82
82
44
38
ENDCHAR
STARTCHAR p
ENCODING 112
SWIDTH 519 0
DWIDTH 8 0
BBX 7 12 0 -3
BITMAP
B8
C4
82
82
82
82
82
C4
B8
80
80
80
ENDCHAR
STARTCHAR q
ENCODING 113
SWIDTH 520 0
DWIDTH 8 0
BBX 7 12 0 -3
BITMAP
3A
46
82
82
82
82
82
46
3A
02
02
02
ENDCHAR
STARTCHAR r
ENCODING 114
SWIDTH 515 0
DWIDTH 8 0
BBX 6 9 1 0
BITMAP
B8
C4
80
80
80
80
80
80
80
ENDCHAR
STARTCHAR s
ENCODING 115
SWIDTH 519 0
DWIDTH 8 0
BBX 7 9 0 0
BITMAP
7C
82
80
80
7C
02
02
82
7C
ENDCHAR
STARTCHAR t
ENCODING 116
SWIDTH 520 0
DWIDTH 8 0
BBX 6 11 1 0
BITMAP
20
20
FC
20
20
20
20
20
20
20
1C
ENDCHAR
STARTCHAR u
ENCODING 117
SWIDTH 519 0
DWIDTH 8 0
BBX 7 9 0 0
BITMAP
82
82
82
82
82
82
82
86
7A
ENDCHAR
STARTCHAR v
ENCODING 118
SWIDTH 520 0
DWIDTH 8 0
BBX 7 9 0 0
BITMAP
82
82
82
44
44
44
28
28
10
ENDCHAR
STARTCHAR w
ENCODING 119
SWIDTH 520 0
DWIDTH 8 0
BBX 7 9 0 0
BITMAP
82
82
92
AA
AA
AA
AA
44
44
ENDCHAR
STARTCHAR x
ENCODING 120
SWIDTH 520 0
DWIDTH 8 0
BBX 7 9 0 0
BITMAP
82
82
44
28
10
28
44
82
82
ENDCHAR
STARTCHAR y
ENCODING 121
SWIDTH 519 0
DWIDTH 8 0
BBX 7 12 0 -3
BITMAP
82
82
42
44
24
24
18
18
08
08
10
60
ENDCHAR
STARTCHAR z
ENCODING 122
SWIDTH 519 0
DWIDTH 8 0
BBX 7 9 0 0
BITMAP
FE
02
04
08
10
20
40
80
FE
ENDCHAR
STARTCHAR braceleft
ENCODING 123
SWIDTH 520 0
DWIDTH 8 0
BBX 5 15 1 -3
BITMAP
18
20
20
20
20
20
20
C0
20
20
20
20
20
20
18
ENDCHAR
STARTCHAR bar
ENCODING 124
SWIDTH 520 0
DWIDTH 8 0
BBX 1 16 3 -4
BITMAP
80
80
80
80
80
80
80
80
80
80
80
80
80
80
80
80
ENDCHAR
STARTCHAR braceright
ENCODING 125
SWIDTH 520 0
DWIDTH 8 0
BBX 5 15 1 -3
BITMAP
C0
20
20
20
20
20
20
18
20
20
20
20
20
20
C0
ENDCHAR
STARTCHAR asciitilde
ENCODING 126
SWIDTH 520 0
DWIDTH 8 0
BBX 6 2 1 4
BITMAP
64
98
ENDCHAR
STARTCHAR uni007F
ENCODING 127
SWIDTH 537 0
DWIDTH 9 0
BBX 1 1 0 0
BITMAP
00
ENDCHAR
STARTCHAR uni0080
ENCODING 128
SWIDTH 537 0
DWIDTH 9 0
BBX 1 1 0 0
BITMAP
00
ENDCHAR
STARTCHAR uni0081
ENCODING 129
SWIDTH 537 0
DWIDTH 9 0
BBX 1 1 0 0
BITMAP
00
ENDCHAR
STARTCHAR uni0082
ENCODING 130
SWIDTH 537 0
DWIDTH 9 0
BBX 1 1 0 0
BITMAP
00
ENDCHAR
STARTCHAR uni0083
ENCODING 131
SWIDTH 537 0
DWIDTH 9 0
BBX 1 1 0 0
BITMAP
00
ENDCHAR
STARTCHAR uni0084
ENCODING 132
SWIDTH 537 0
DWIDTH 9 0
BBX 1 1 0 0
BITMAP
00
ENDCHAR
STARTCHAR uni0085
ENCODING 133
SWIDTH 537 0
DWIDTH 9 0
BBX 1 1 0 0
BITMAP
00
ENDCHAR
STARTCHAR uni0086
ENCODING 134
SWIDTH 537 0
DWIDTH 9 0
BBX 1 1 0 0
BITMAP
00
ENDCHAR
STARTCHAR uni0087
ENCODING 135
SWIDTH 537 0
DWIDTH 9 0
BBX 1 1 0 0
BITMAP
00
ENDCHAR
STARTCHAR uni0088
ENCODING 136
SWIDTH 537 0
DWIDTH 9 0
BBX 1 1 0 0
BITMAP
00
ENDCHAR
STARTCHAR uni0089
ENCODING 137
SWIDTH 537 0
DWIDTH 9 0
BBX 1 1 0 0
BITMAP
00
ENDCHAR
STARTCHAR uni008A
ENCODING 138
SWIDTH 537 0
DWIDTH 9 0
BBX 1 1 0 0
BITMAP
00
ENDCHAR
STARTCHAR uni008B
ENCODING 139
SWIDTH 537 0
DWIDTH 9 0
BBX 1 1 0 0
BITMAP
00
ENDCHAR
STARTCHAR uni008C
ENCODING 140
SWIDTH 537 0
DWIDTH 9 0
BBX 1 1 0 0
BITMAP
00
ENDCHAR
STARTCHAR uni008D
ENCODING 141
SWIDTH 537 0
DWIDTH 9 0
BBX 1 1 0 0
BITMAP
00
ENDCHAR
STARTCHAR uni008E
ENCODING 142
SWIDTH 537 0
DWIDTH 9 0
BBX 1 1 0 0
BITMAP
00
ENDCHAR
STARTCHAR uni008F
ENCODING 143
SWIDTH 537 0
DWIDTH 9 0
BBX 1 1 0 0
BITMAP
00
ENDCHAR
STARTCHAR uni0090
ENCODING 144
SWIDTH 537 0
DWIDTH 9 0
BBX 1 1 0 0
BITMAP
00
ENDCHAR
STARTCHAR uni0091
ENCODING 145
SWIDTH 537 0
DWIDTH 9 0
BBX 1 1 0 0
BITMAP
00
ENDCHAR
STARTCHAR uni0092
ENCODING 146
SWIDTH 537 0
DWIDTH 9 0
BBX 1 1 0 0
BITMAP
00
ENDCHAR
STARTCHAR uni0093
ENCODING 147
SWIDTH 537 0
DWIDTH 9 0
BBX 1 1 0 0
BITMAP
00
ENDCHAR
STARTCHAR uni0094
ENCODING 148
SWIDTH 537 0
DWIDTH 9 0
BBX 1 1 0 0
BITMAP
00
ENDCHAR
STARTCHAR uni0095
ENCODING 149
SWIDTH 537 0
DWIDTH 9 0
BBX 1 1 0 0
BITMAP
00
ENDCHAR
STARTCHAR uni0096
ENCODING 150
SWIDTH 537 0
DWIDTH 9 0
BBX 1 1 0 0
BITMAP
00
ENDCHAR
STARTCHAR uni0097
ENCODING 151
SWIDTH 537 0
DWIDTH 9 0
BBX 1 1 0 0
BITMAP
00
ENDCHAR
STARTCHAR uni0098
ENCODING 152
SWIDTH 537 0
DWIDTH 9 0
BBX 1 1 0 0
BITMAP
00
ENDCHAR
STARTCHAR uni0099
ENCODING 153
SWIDTH 537 0
DWIDTH 9 0
BBX 1 1 0 0
BITMAP
00
ENDCHAR
STARTCHAR uni009A
ENCODING 154
SWIDTH 537 0
DWIDTH 9 0
BBX 1 1 0 0
BITMAP
00
ENDCHAR
STARTCHAR uni009B
ENCODING 155
SWIDTH 537 0
DWIDTH 9 0
BBX 1 1 0 0
BITMAP
00
ENDCHAR
STARTCHAR uni009C
ENCODING 156
SWIDTH 537 0
DWIDTH 9 0
BBX 1 1 0 0
BITMAP
00
ENDCHAR
STARTCHAR uni009D
ENCODING 157
SWIDTH 537 0
DWIDTH 9 0
BBX 1 1 0 0
BITMAP
00
ENDCHAR
STARTCHAR uni009E
ENCODING 158
SWIDTH 537 0
DWIDTH 9 0
BBX 1 1 0 0
BITMAP
00
ENDCHAR
STARTCHAR uni009F
ENCODING 159
SWIDTH 537 0
DWIDTH 9 0
BBX 1 1 0 0
BITMAP
00
ENDCHAR
STARTCHAR nonbreakingspace
ENCODING 160
SWIDTH 537 0
DWIDTH 9 0
BBX 1 1 0 0
BITMAP
00
ENDCHAR
STARTCHAR exclamdown
ENCODING 161
SWIDTH 519 0
DWIDTH 8 0
BBX 1 12 3 0
BITMAP
80
80
00
00
80
80
80
80
80
80
80
80
ENDCHAR
STARTCHAR cent
ENCODING 162
SWIDTH 519 0
DWIDTH 8 0
BBX 6 13 1 -2
BITMAP
10
10
38
54
90
90
90
90
90
54
38
10
10
ENDCHAR
STARTCHAR sterling
ENCODING 163
SWIDTH 519 0
DWIDTH 8 0
BBX 7 12 0 0
BITMAP
1C
32
20
20
20
20
7C
20
20
20
20
FE
ENDCHAR
STARTCHAR currency
ENCODING 164
SWIDTH 519 0
DWIDTH 8 0
BBX 7 7 0 2
BITMAP
82
7C
44
44
44
7C
82
ENDCHAR
STARTCHAR yen
ENCODING 165
SWIDTH 520 0
DWIDTH 8 0
BBX 7 12 0 0
BITMAP
82
82
44
44
28
EE
10
FE
10
10
10
10
ENDCHAR
STARTCHAR brokenbar
ENCODING 166
SWIDTH 520 0
DWIDTH 8 0
BBX 1 14 3 -3
BITMAP
80
80
80
80
80
80
00
00
80
80
80
80
80
80
ENDCHAR
STARTCHAR section
ENCODING 167
SWIDTH 519 0
DWIDTH 8 0
BBX 6 14 1 -2
BITMAP
78
80
80
40
B0
98
84
C4
64
38
1C
04
04
78
ENDCHAR
STARTCHAR dieresis
ENCODING 168
SWIDTH 520 0
DWIDTH 8 0
BBX 5 2 2 10
BITMAP
D8
D8
ENDCHAR
STARTCHAR copyright
ENCODING 169
SWIDTH 520 0
DWIDTH 8 0
BBX 8 10 0 1
BITMAP
3C
42
9D
A1
A1
A1
A1
9D
42
3C
ENDCHAR
STARTCHAR ordfeminine
ENCODING 170
SWIDTH 520 0
DWIDTH 8 0
BBX 6 8 1 4
BITMAP
F8
04
7C
84
8C
74
00
FC
ENDCHAR
STARTCHAR guillemotleft
ENCODING 171
SWIDTH 520 0
DWIDTH 8 0
BBX 8 7 0 1
BITMAP
11
22
44
88
44
22
11
ENDCHAR
STARTCHAR logicalnot
ENCODING 172
SWIDTH 520 0
DWIDTH 8 0
BBX 7 4 0 3
BITMAP
FE
02
02
02
ENDCHAR
STARTCHAR sfthyphen
ENCODING 173
SWIDTH 520 0
DWIDTH 8 0
BBX 4 1 2 4
BITMAP
F0
ENDCHAR
STARTCHAR registered
ENCODING 174
SWIDTH 520 0
DWIDTH 8 0
BBX 8 10 0 1
BITMAP
3C
42
B9
A5
A5
B9
A5
A5
42
3C
ENDCHAR
STARTCHAR macron
ENCODING 175
SWIDTH 520 0
DWIDTH 8 0
BBX 4 1 2 11
BITMAP
F0
ENDCHAR
STARTCHAR degree
ENCODING 176
SWIDTH 520 0
DWIDTH 8 0
BBX 5 5 1 7
BITMAP
70
88
88
88
70
ENDCHAR
STARTCHAR plusminus
ENCODING 177
SWIDTH 520 0
DWIDTH 8 0
BBX 7 10 0 0
BITMAP
10
10
10
FE
10
10
10
00
00
FE
ENDCHAR
STARTCHAR twosuperior
ENCODING 178
SWIDTH 520 0
DWIDTH 8 0
BBX 4 7 2 5
BITMAP
E0
10
10
20
40
80
F0
ENDCHAR
STARTCHAR threesuperior
ENCODING 179
SWIDTH 519 0
DWIDTH 8 0
BBX 4 7 1 5
BITMAP
E0
10
10
60
10
10
E0
ENDCHAR
STARTCHAR acute
ENCODING 180
SWIDTH 516 0
DWIDTH 8 0
BBX 4 3 2 10
BITMAP
30
60
C0
ENDCHAR
STARTCHAR mu
ENCODING 181
SWIDTH 517 0
DWIDTH 8 0
BBX 8 12 0 -3
BITMAP
82
82
82
82
82
82
82
C6
B9
80
80
80
ENDCHAR
STARTCHAR paragraph
ENCODING 182
SWIDTH 521 0
DWIDTH 8 0
BBX 7 14 0 -2
BITMAP
7E
FA
FA
FA
FA
FA
7A
0A
0A
0A
0A
0A
0A
0A
ENDCHAR
STARTCHAR periodcentered
ENCODING 183
SWIDTH 520 0
DWIDTH 8 0
BBX 2 2 3 5
BITMAP
C0
C0
ENDCHAR
STARTCHAR cedilla
ENCODING 184
SWIDTH 520 0
DWIDTH 8 0
BBX 3 3 2 -3
BITMAP
40
20
E0
ENDCHAR
STARTCHAR onesuperior
ENCODING 185
SWIDTH 519 0
DWIDTH 8 0
BBX 5 7 1 5
BITMAP
E0
20
20
20
20
20
F8
ENDCHAR
STARTCHAR ordmasculine
ENCODING 186
SWIDTH 520 0
DWIDTH 8 0
BBX 6 8 1 4
BITMAP
78
CC
84
84
CC
78
00
FC
ENDCHAR
STARTCHAR guillemotright
ENCODING 187
SWIDTH 518 0
DWIDTH 8 0
BBX 8 7 0 1
BITMAP
88
44
22
11
22
44
88
ENDCHAR
STARTCHAR onequarter
ENCODING 188
SWIDTH 526 0
DWIDTH 8 0
BBX 5 7 0 6
BITMAP
E0
20
20
20
20
20
F8
ENDCHAR
STARTCHAR onehalf
ENCODING 189
SWIDTH 520 0
DWIDTH 8 0
BBX 7 15 0 -2
BITMAP
E0
20
20
20
20
20
F8
00
1E
02
02
02
04
08
1E
ENDCHAR
STARTCHAR threequarters
ENCODING 190
SWIDTH 526 0
DWIDTH 8 0
BBX 4 7 0 6
BITMAP
F0
10
10
60
10
10
F0
ENDCHAR
STARTCHAR questiondown
ENCODING 191
SWIDTH 520 0
DWIDTH 8 0
BBX 6 12 0 0
BITMAP
10
10
00
10
10
20
40
80
80
80
84
78
ENDCHAR
STARTCHAR Agrave
ENCODING 192
SWIDTH 520 0
DWIDTH 8 0
BBX 8 12 0 0
BITMAP
18
18
24
24
24
24
42
42
7E
42
81
81
ENDCHAR
STARTCHAR Aacute
ENCODING 193
SWIDTH 520 0
DWIDTH 8 0
BBX 8 12 0 0
BITMAP
18
18
24
24
24
24
42
42
7E
42
81
81
ENDCHAR
STARTCHAR Acircumflex
ENCODING 194
SWIDTH 520 0
DWIDTH 8 0
BBX 8 12 0 0
BITMAP
18
18
24
24
24
24
42
42
7E
42
81
81
ENDCHAR
STARTCHAR Atilde
ENCODING 195
SWIDTH 520 0
DWIDTH 8 0
BBX 8 12 0 0
BITMAP
18
18
24
24
24
24
42
42
7E
42
81
81
ENDCHAR
STARTCHAR Adieresis
ENCODING 196
SWIDTH 520 0
DWIDTH 8 0
BBX 8 12 0 0
BITMAP
18
18
24
24
24
24
42
42
7E
42
81
81
ENDCHAR
STARTCHAR Aring
ENCODING 197
SWIDTH 520 0
DWIDTH 8 0
BBX 8 15 0 0
BITMAP
18
24
24
18
18
18
24
24
24
42
42
7E
42
81
81
ENDCHAR
STARTCHAR AE
ENCODING 198
SWIDTH 520 0
DWIDTH 8 0
BBX 8 12 0 0
BITMAP
3F
28
28
28
28
4F
48
48
78
48
88
8F
ENDCHAR
STARTCHAR Ccedilla
ENCODING 199
SWIDTH 520 0
DWIDTH 8 0
BBX 7 15 0 -3
BITMAP
3C
42
80
80
80
80
80
80
80
80
42
3C
10
08
30
ENDCHAR
STARTCHAR Egrave
ENCODING 200
SWIDTH 519 0
DWIDTH 8 0
BBX 7 12 0 0
BITMAP
FE
80
80
80
80
FE
80
80
80
80
80
FE
ENDCHAR
STARTCHAR Eacute
ENCODING 201
SWIDTH 519 0
DWIDTH 8 0
BBX 7 12 0 0
BITMAP
FE
80
80
80
80
FE
80
80
80
80
80
FE
ENDCHAR
STARTCHAR Ecircumflex
ENCODING 202
SWIDTH 519 0
DWIDTH 8 0
BBX 7 12 0 0
BITMAP
FE
80
80
80
80
FE
80
80
80
80
80
FE
ENDCHAR
STARTCHAR Edieresis
ENCODING 203
SWIDTH 519 0
DWIDTH 8 0
BBX 7 12 0 0
BITMAP
FE
80
80
80
80
FE
80
80
80
80
80
FE
ENDCHAR
STARTCHAR Igrave
ENCODING 204
SWIDTH 520 0
DWIDTH 8 0
BBX 5 12 1 0
BITMAP
F8
20
20
20
20
20
20
20
20
20
20
F8
ENDCHAR
STARTCHAR Iacute
ENCODING 205
SWIDTH 520 0
DWIDTH 8 0
BBX 5 12 1 0
BITMAP
F8
20
20
20
20
20
20
20
20
20
20
F8
ENDCHAR
STARTCHAR Icircumflex
ENCODING 206
SWIDTH 520 0
DWIDTH 8 0
BBX 5 12 1 0
BITMAP
F8
20
20
20
20
20
20
20
20
20
20
F8
ENDCHAR
STARTCHAR Idieresis
ENCODING 207
SWIDTH 520 0
DWIDTH 8 0
BBX 5 12 1 0
BITMAP
F8
20
20
20
20
20
20
20
20
20
20
F8
ENDCHAR
STARTCHAR Eth
ENCODING 208
SWIDTH 521 0
DWIDTH 8 0
BBX 9 12 -1 0
BITMAP
7C00
4300
4100
4080
4080
F080
4080
4080
4080
4100
4300
7C00
ENDCHAR
STARTCHAR Ntilde
ENCODING 209
SWIDTH 520 0
DWIDTH 8 0
BBX 7 12 0 0
BITMAP
C2
C2
A2
A2
92
92
8A
8A
86
86
82
82
ENDCHAR
STARTCHAR Ograve
ENCODING 210
SWIDTH 520 0
DWIDTH 8 0
BBX 8 12 0 0
BITMAP
3C
42
C3
81
81
81
81
81
81
C3
42
3C
ENDCHAR
STARTCHAR Oacute
ENCODING 211
SWIDTH 520 0
DWIDTH 8 0
BBX 8 12 0 0
BITMAP
3C
42
C3
81
81
81
81
81
81
C3
42
3C
ENDCHAR
STARTCHAR Ocircumflex
ENCODING 212
SWIDTH 520 0
DWIDTH 8 0
BBX 8 12 0 0
BITMAP
3C
42
C3
81
81
81
81
81
81
C3
42
3C
ENDCHAR
STARTCHAR Otilde
ENCODING 213
SWIDTH 520 0
DWIDTH 8 0
BBX 8 12 0 0
BITMAP
3C
42
C3
81
81
81
81
81
81
C3
42
3C
ENDCHAR
STARTCHAR Odieresis
ENCODING 214
SWIDTH 520 0
DWIDTH 8 0
BBX 8 12 0 0
BITMAP
3C
42
C3
81
81
81
81
81
81
C3
42
3C
ENDCHAR
STARTCHAR multiply
ENCODING 215
SWIDTH 520 0
DWIDTH 8 0
BBX 7 7 0 2
BITMAP
82
44
28
10
28
44
82
ENDCHAR
STARTCHAR Oslash
ENCODING 216
SWIDTH 520 0
DWIDTH 8 0
BBX 8 12 0 0
BITMAP
19
25
42
46
4A
4A
52
52
62
42
A4
98
ENDCHAR
STARTCHAR Ugrave
ENCODING 217
SWIDTH 520 0
DWIDTH 8 0
BBX 8 12 0 0
BITMAP
81
81
81
81
81
81
81
81
81
81
42
3C
ENDCHAR
STARTCHAR Uacute
ENCODING 218
SWIDTH 520 0
DWIDTH 8 0
BBX 8 12 0 0
BITMAP
81
81
81
81
81
81
81
81
81
81
42
3C
ENDCHAR
STARTCHAR Ucircumflex
ENCODING 219
SWIDTH 520 0
DWIDTH 8 0
BBX 8 12 0 0
BITMAP
81
81
81
81
81
81
81
81
81
81
42
3C
ENDCHAR
STARTCHAR Udieresis
ENCODING 220
SWIDTH 520 0
DWIDTH 8 0
BBX 8 12 0 0
BITMAP
81
81
81
81
81
81
81
81
81
81
42
3C
ENDCHAR
STARTCHAR Yacute
ENCODING 221
SWIDTH 520 0
DWIDTH 8 0
BBX 7 12 0 0
BITMAP
82
82
44
44
28
28
10
10
10
10
10
10
ENDCHAR
STARTCHAR Thorn
ENCODING 222
SWIDTH 518 0
DWIDTH 8 0
BBX 8 12 0 0
BITMAP
80
80
FC
82
81
81
81
82
FC
80
80
80
ENDCHAR
STARTCHAR germandbls
ENCODING 223
SWIDTH 518 0
DWIDTH 8 0
BBX 8 12 0 0
BITMAP
7C
C6
82
84
88
88
8C
86
83
81
81
BE
ENDCHAR
STARTCHAR agrave
ENCODING 224
SWIDTH 520 0
DWIDTH 8 0
BBX 8 13 0 0
BITMAP
60
30
18
00
3E
43
01
3F
C1
81
83
C7
7D
ENDCHAR
STARTCHAR aacute
ENCODING 225
SWIDTH 520 0
DWIDTH 8 0
BBX 8 13 0 0
BITMAP
0C
18
30
00
3E
43
01
3F
C1
81
83
C7
7D
ENDCHAR
STARTCHAR acircumflex
ENCODING 226
SWIDTH 520 0
DWIDTH 8 0
BBX 8 9 0 0
BITMAP
3E
43
01
3F
C1
81
83
C7
7D
ENDCHAR
STARTCHAR atilde
ENCODING 227
SWIDTH 520 0
DWIDTH 8 0
BBX 8 9 0 0
BITMAP
3E
43
01
3F
C1
81
83
C7
7D
ENDCHAR
STARTCHAR adieresis
ENCODING 228
SWIDTH 520 0
DWIDTH 8 0
BBX 8 12 0 0
BITMAP
6C
6C
00
3E
43
01
3F
C1
81
83
C7
7D
ENDCHAR
STARTCHAR aring
ENCODING 229
SWIDTH 520 0
DWIDTH 8 0
BBX 8 9 0 0
BITMAP
3E
43
01
3F
C1
81
83
C7
7D
ENDCHAR
STARTCHAR ae
ENCODING 230
SWIDTH 519 0
DWIDTH 8 0
BBX 8 9 0 0
BITMAP
6E
91
11
11
7F
90
90
91
6E
ENDCHAR
STARTCHAR ccedilla
ENCODING 231
SWIDTH 519 0
DWIDTH 8 0
BBX 6 12 1 -3
BITMAP
38
44
80
80
80
80
80
44
38
10
08
30
ENDCHAR
STARTCHAR egrave
ENCODING 232
SWIDTH 519 0
DWIDTH 8 0
BBX 8 13 0 0
BITMAP
20
30
18
00
3C
42
81
81
FF
80
80
41
3E
ENDCHAR
STARTCHAR eacute
ENCODING 233
SWIDTH 519 0
DWIDTH 8 0
BBX 8 13 0 0
BITMAP
0C
18
30
00
3C
42
81
81
FF
80
80
41
3E
ENDCHAR
STARTCHAR ecircumflex
ENCODING 234
SWIDTH 519 0
DWIDTH 8 0
BBX 8 9 0 0
BITMAP
3C
42
81
81
FF
80
80
41
3E
ENDCHAR
STARTCHAR edieresis
ENCODING 235
SWIDTH 519 0
DWIDTH 8 0
BBX 8 12 0 0
BITMAP
6C
6C
00
3C
42
81
81
FF
80
80
41
3E
ENDCHAR
STARTCHAR igrave
ENCODING 236
SWIDTH 522 0
DWIDTH 8 0
BBX 4 3 2 10
BITMAP
C0
60
30
ENDCHAR
STARTCHAR iacute
ENCODING 237
SWIDTH 516 0
DWIDTH 8 0
BBX 4 3 2 10
BITMAP
30
60
C0
ENDCHAR
STARTCHAR icircumflex
ENCODING 238
SWIDTH 537 0
DWIDTH 9 0
BBX 1 1 0 0
BITMAP
00
ENDCHAR
STARTCHAR idieresis
ENCODING 239
SWIDTH 520 0
DWIDTH 8 0
BBX 5 2 1 10
BITMAP
D8
D8
ENDCHAR
STARTCHAR eth
ENCODING 240
SWIDTH 520 0
DWIDTH 8 0
BBX 8 12 0 0
BITMAP
32
3C
44
3E
42
81
81
81
81
81
42
3C
ENDCHAR
STARTCHAR ntilde
ENCODING 241
SWIDTH 519 0
DWIDTH 8 0
BBX 8 9 0 0
BITMAP
BC
C2
81
81
81
81
81
81
81
ENDCHAR
STARTCHAR ograve
ENCODING 242
SWIDTH 520 0
DWIDTH 8 0
BBX 8 13 0 0
BITMAP
60
30
18
00
3C
42
81
81
81
81
81
42
3C
ENDCHAR
STARTCHAR oacute
ENCODING 243
SWIDTH 520 0
DWIDTH 8 0
BBX 8 13 0 0
BITMAP
0C
18
30
00
3C
42
81
81
81
81
81
42
3C
ENDCHAR
STARTCHAR ocircumflex
ENCODING 244
SWIDTH 520 0
DWIDTH 8 0
BBX 8 9 0 0
BITMAP
3C
42
81
81
81
81
81
42
3C
ENDCHAR
STARTCHAR otilde
ENCODING 245
SWIDTH 520 0
DWIDTH 8 0
BBX 8 9 0 0
BITMAP
3C
42
81
81
81
81
81
42
3C
ENDCHAR
STARTCHAR odieresis
ENCODING 246
SWIDTH 520 0
DWIDTH 8 0
BBX 8 12 0 0
BITMAP
6C
6C
00
3C
42
81
81
81
81
81
42
3C
ENDCHAR
STARTCHAR divide
ENCODING 247
SWIDTH 520 0
DWIDTH 8 0
BBX 8 7 0 1
BITMAP
18
18
00
FF
00
18
18
ENDCHAR
STARTCHAR oslash
ENCODING 248
SWIDTH 520 0
DWIDTH 8 0
BBX 8 9 0 0
BITMAP
3D
43
42
46
4A
52
62
C2
BC
ENDCHAR
STARTCHAR ugrave
ENCODING 249
SWIDTH 519 0
DWIDTH 8 0
BBX 8 13 0 0
BITMAP
60
30
18
00
81
81
81
81
81
81
81
C3
7D
ENDCHAR
STARTCHAR uacute
ENCODING 250
SWIDTH 519 0
DWIDTH 8 0
BBX 8 13 0 0
BITMAP
0C
18
30
00
81
81
81
81
81
81
81
C3
7D
ENDCHAR
STARTCHAR ucircumflex
ENCODING 251
SWIDTH 519 0
DWIDTH 8 0
BBX 8 9 0 0
BITMAP
81
81
81
81
81
81
81
C3
7D
ENDCHAR
STARTCHAR udieresis
ENCODING 252
SWIDTH 519 0
DWIDTH 8 0
BBX 8 12 0 0
BITMAP
6C
6C
00
81
81
81
81
81
81
81
C3
7D
ENDCHAR
STARTCHAR yacute
ENCODING 253
SWIDTH 519 0
DWIDTH 8 0
BBX 8 16 0 -3
BITMAP
0C
18
30
00
81
42
42
42
24
24
14
18
18
08
10
70
ENDCHAR
STARTCHAR thorn
ENCODING 254
SWIDTH 519 0
DWIDTH 8 0
BBX 8 15 0 -3
BITMAP
80
80
80
BC
C2
81
81
81
81
81
C2
BC
80
80
80
ENDCHAR
STARTCHAR ydieresis
ENCODING 255
SWIDTH 519 0
DWIDTH 8 0
BBX 8 15 0 -3
BITMAP
6C
6C
00
81
42
42
42
24
24
14
18
18
08
10
70
ENDCHAR
ENDFONT
